HIERARCHY
ROOT Hips
{
	OFFSET 0.000000 87.230942 0.000000
	CHANNELS 6 Xposition Yposition Zposition Xrotation Yrotation Zrotation
	JOINT Pelvis
	{
		OFFSET 0.000000 0.000000 0.000000
		CHANNELS 3 Xrotation Yrotation Zrotation
		JOINT LeftUpLeg
		{
			OFFSET 12.017000 -9.376404 -2.439400
			CHANNELS 3 Xrotation Yrotation Zrotation
			JOINT LeftLeg
			{
				OFFSET -0.007312 -32.846973 2.110600
				CHANNELS 3 Xrotation Yrotation Zrotation
				JOINT LeftFoot
				{
					OFFSET 0.007312 -32.065170 -0.570400
					CHANNELS 3 Xrotation Yrotation Zrotation
					JOINT LeftToeBase
					{
						OFFSET 0.728300 -11.045900 13.180700
						CHANNELS 3 Xrotation Yrotation Zrotation
						End Site
						{
							OFFSET 0.000000 17.212589 0.000000
						}
					}
				}
				JOINT LeftPantLeg
				{
					OFFSET 0.002788 -16.709013 -3.143600
					CHANNELS 3 Xrotation Yrotation Zrotation
					End Site
					{
						OFFSET -0.605125 24.528742 0.000000
					}
				}
			}
			JOINT Left_Butt
			{
				OFFSET -6.630234 1.326584 -3.183700
				CHANNELS 3 Xrotation Yrotation Zrotation
				End Site
				{
					OFFSET -0.498041 20.188049 0.000000
				}
			}
		}
		JOINT RightUpLeg
		{
			OFFSET -11.717000 -9.376404 -2.439400
			CHANNELS 3 Xrotation Yrotation Zrotation
			JOINT RightLeg
			{
				OFFSET -0.003241 -32.846912 2.110600
				CHANNELS 3 Xrotation Yrotation Zrotation
				JOINT RightFoot
				{
					OFFSET 0.003241 -32.065136 -0.570500
					CHANNELS 3 Xrotation Yrotation Zrotation
					JOINT RightToeBase
					{
						OFFSET -0.728300 -11.045901 13.180700
						CHANNELS 3 Xrotation Yrotation Zrotation
						End Site
						{
							OFFSET 0.000000 17.212593 0.000000
						}
					}
				}
				JOINT RightPantLeg
				{
					OFFSET 0.008142 -16.708982 -3.143700
					CHANNELS 3 Xrotation Yrotation Zrotation
					End Site
					{
						OFFSET 0.605088 24.528715 0.000000
					}
				}
			}
			JOINT Right_Butt
			{
				OFFSET 6.630732 1.326584 -3.183700
				CHANNELS 3 Xrotation Yrotation Zrotation
				End Site
				{
					OFFSET 0.498015 20.188240 0.000000
				}
			}
		}
	}
	JOINT Spine
	{
		OFFSET -0.062400 7.848404 3.918300
		CHANNELS 3 Xrotation Yrotation Zrotation
		JOINT Spine1
		{
			OFFSET -0.072800 11.422302 0.713400
			CHANNELS 3 Xrotation Yrotation Zrotation
			JOINT Spine2
			{
				OFFSET -0.083200 13.054001 -1.931600
				CHANNELS 3 Xrotation Yrotation Zrotation
				JOINT Neck
				{
					OFFSET -0.092200 14.121796 -5.138800
					CHANNELS 3 Xrotation Yrotation Zrotation
					JOINT Head
					{
						OFFSET 0.000200 10.447403 -0.842000
						CHANNELS 3 Xrotation Yrotation Zrotation
						JOINT Visor
						{
							OFFSET 0.457100 25.671204 16.550400
							CHANNELS 3 Xrotation Yrotation Zrotation
							End Site
							{
								OFFSET 0.000000 26.061493 0.000000
							}
						}
						JOINT HairMidA
						{
							OFFSET 0.459400 31.585403 8.437400
							CHANNELS 3 Xrotation Yrotation Zrotation
							End Site
							{
								OFFSET 0.000000 26.061493 0.000000
							}
						}
						JOINT HairMidB
						{
							OFFSET 0.464000 33.309204 -8.389700
							CHANNELS 3 Xrotation Yrotation Zrotation
							End Site
							{
								OFFSET 0.000000 26.061493 0.000000
							}
						}
						JOINT HairMidC
						{
							OFFSET 0.466600 27.991196 -17.375099
							CHANNELS 3 Xrotation Yrotation Zrotation
							End Site
							{
								OFFSET 0.000000 26.061493 0.000000
							}
						}
						JOINT HairMidD
						{
							OFFSET 0.467700 17.888092 -21.169500
							CHANNELS 3 Xrotation Yrotation Zrotation
							End Site
							{
								OFFSET 0.000000 26.061493 0.000000
							}
						}
						JOINT HairMidE
						{
							OFFSET 5.325700 3.514603 -14.369699
							CHANNELS 3 Xrotation Yrotation Zrotation
							End Site
							{
								OFFSET 0.000000 26.061493 0.000000
							}
						}
						JOINT HairMidF
						{
							OFFSET -4.394100 3.514603 -14.372400
							CHANNELS 3 Xrotation Yrotation Zrotation
							End Site
							{
								OFFSET 0.000000 26.061493 0.000000
							}
						}
						JOINT HairLeftA
						{
							OFFSET 15.319900 25.746506 2.623300
							CHANNELS 3 Xrotation Yrotation Zrotation
							End Site
							{
								OFFSET 0.000000 26.061493 0.000000
							}
						}
						JOINT HairLeftB
						{
							OFFSET 12.619500 29.289398 -8.731499
							CHANNELS 3 Xrotation Yrotation Zrotation
							End Site
							{
								OFFSET 0.000000 26.061493 0.000000
							}
						}
						JOINT HairLeftC
						{
							OFFSET 15.714800 15.959900 2.909800
							CHANNELS 3 Xrotation Yrotation Zrotation
							End Site
							{
								OFFSET 0.000000 26.061493 0.000000
							}
						}
						JOINT HairLeftD
						{
							OFFSET 16.101700 18.437408 -7.553200
							CHANNELS 3 Xrotation Yrotation Zrotation
							End Site
							{
								OFFSET 0.000000 26.061493 0.000000
							}
						}
						JOINT HairLeftE
						{
							OFFSET 9.731900 17.915009 -18.316799
							CHANNELS 3 Xrotation Yrotation Zrotation
							End Site
							{
								OFFSET 0.000000 26.061493 0.000000
							}
						}
						JOINT HairLeftF
						{
							OFFSET 11.204300 4.953598 -9.668100
							CHANNELS 3 Xrotation Yrotation Zrotation
							End Site
							{
								OFFSET 0.000000 26.061493 0.000000
							}
						}
						JOINT HairRightA
						{
							OFFSET -14.397900 25.746307 2.615100
							CHANNELS 3 Xrotation Yrotation Zrotation
							End Site
							{
								OFFSET 0.000000 26.061493 0.000000
							}
						}
						JOINT HairRightB
						{
							OFFSET -11.691200 29.289200 -8.738199
							CHANNELS 3 Xrotation Yrotation Zrotation
							End Site
							{
								OFFSET 0.000000 26.061493 0.000000
							}
						}
						JOINT HairRightC
						{
							OFFSET -14.792900 15.959702 2.901400
							CHANNELS 3 Xrotation Yrotation Zrotation
							End Site
							{
								OFFSET 0.000000 26.061493 0.000000
							}
						}
						JOINT HairRightD
						{
							OFFSET -15.174000 18.437195 -7.561900
							CHANNELS 3 Xrotation Yrotation Zrotation
							End Site
							{
								OFFSET 0.000000 26.061493 0.000000
							}
						}
						JOINT HairRightE
						{
							OFFSET -8.798200 17.914902 -18.322001
							CHANNELS 3 Xrotation Yrotation Zrotation
							End Site
							{
								OFFSET 0.000000 26.061493 0.000000
							}
						}
						JOINT HairRightF
						{
							OFFSET -10.275200 4.953506 -9.674099
							CHANNELS 3 Xrotation Yrotation Zrotation
							End Site
							{
								OFFSET 0.000000 26.061493 0.000000
							}
						}
					}
				}
				JOINT LeftShoulder
				{
					OFFSET 5.133500 7.341202 -1.867600
					CHANNELS 3 Xrotation Yrotation Zrotation
					JOINT LeftArm
					{
						OFFSET 8.072663 0.936867 -2.176600
						CHANNELS 3 Xrotation Yrotation Zrotation
						JOINT LeftForeArm
						{
							OFFSET 31.271999 0.000000 0.000000
							CHANNELS 3 Xrotation Yrotation Zrotation
							JOINT LeftHand
							{
								OFFSET 31.771030 0.000000 0.000000
								CHANNELS 3 Xrotation Yrotation Zrotation
								JOINT LeftHandThumb1
								{
									OFFSET 2.886520 -2.557846 4.416640
									CHANNELS 3 Xrotation Yrotation Zrotation
									JOINT LeftHandThumb2
									{
										OFFSET 2.371025 -1.368912 1.368911
										CHANNELS 3 Xrotation Yrotation Zrotation
										JOINT LeftHandThumb3
										{
											OFFSET 2.243378 -1.295212 1.295213
											CHANNELS 3 Xrotation Yrotation Zrotation
											End Site
											{
												OFFSET -0.332611 2.876945 0.020015
											}
										}
									}
								}
								JOINT LeftHandIndex1
								{
									OFFSET 8.568985 -0.641945 3.119977
									CHANNELS 3 Xrotation Yrotation Zrotation
									JOINT LeftHandIndex2
									{
										OFFSET 3.348503 0.000000 0.000000
										CHANNELS 3 Xrotation Yrotation Zrotation
										JOINT LeftHandIndex3
										{
											OFFSET 3.314552 0.000000 0.000000
											CHANNELS 3 Xrotation Yrotation Zrotation
											End Site
											{
												OFFSET -1.032898 3.075485 0.678796
											}
										}
									}
								}
								JOINT LeftHandMiddle1
								{
									OFFSET 8.124603 0.000000 0.000000
									CHANNELS 3 Xrotation Yrotation Zrotation
									JOINT LeftHandMiddle2
									{
										OFFSET 4.166275 0.000000 0.000000
										CHANNELS 3 Xrotation Yrotation Zrotation
										JOINT LeftHandMiddle3
										{
											OFFSET 3.018135 0.000000 0.000000
											CHANNELS 3 Xrotation Yrotation Zrotation
											End Site
											{
												OFFSET -1.032700 2.767982 0.617226
											}
										}
									}
								}
								JOINT LeftHandRing1
								{
									OFFSET 8.571686 -0.031357 -2.884048
									CHANNELS 3 Xrotation Yrotation Zrotation
									JOINT LeftHandRing2
									{
										OFFSET 3.671181 0.000000 0.000000
										CHANNELS 3 Xrotation Yrotation Zrotation
										JOINT LeftHandRing3
										{
											OFFSET 2.728851 0.000000 0.000000
											CHANNELS 3 Xrotation Yrotation Zrotation
											End Site
											{
												OFFSET -0.815796 2.539223 0.577389
											}
										}
									}
								}
								JOINT LeftHandPinky1
								{
									OFFSET 7.854515 -0.675232 -5.213020
									CHANNELS 3 Xrotation Yrotation Zrotation
									JOINT LeftHandPinky2
									{
										OFFSET 3.068596 0.000000 0.000000
										CHANNELS 3 Xrotation Yrotation Zrotation
										JOINT LeftHandPinky3
										{
											OFFSET 2.396042 0.000000 0.000000
											CHANNELS 3 Xrotation Yrotation Zrotation
											End Site
											{
												OFFSET -0.524597 2.267998 0.567429
											}
										}
									}
								}
							}
							JOINT LeftSleeve
							{
								OFFSET 19.684509 -0.200119 0.476146
								CHANNELS 3 Xrotation Yrotation Zrotation
								End Site
								{
									OFFSET -0.031017 25.731133 -0.002868
								}
							}
						}
					}
				}
				JOINT RightShoulder
				{
					OFFSET -4.395900 7.341202 -1.870200
					CHANNELS 3 Xrotation Yrotation Zrotation
					JOINT RightArm
					{
						OFFSET -8.071453 0.936867 -2.181100
						CHANNELS 3 Xrotation Yrotation Zrotation
						JOINT RightForeArm
						{
							OFFSET -31.272011 0.000000 0.000000
							CHANNELS 3 Xrotation Yrotation Zrotation
							JOINT RightHand
							{
								OFFSET -31.771019 0.000000 0.000000
								CHANNELS 3 Xrotation Yrotation Zrotation
								JOINT RightHandThumb1
								{
									OFFSET -2.886520 -2.557808 4.416626
									CHANNELS 3 Xrotation Yrotation Zrotation
									JOINT RightHandThumb2
									{
										OFFSET -2.371056 -1.368927 1.368928
										CHANNELS 3 Xrotation Yrotation Zrotation
										JOINT RightHandThumb3
										{
											OFFSET -2.243362 -1.295204 1.295206
											CHANNELS 3 Xrotation Yrotation Zrotation
											End Site
											{
												OFFSET 0.332642 2.876938 0.020047
											}
										}
									}
								}
								JOINT RightHandIndex1
								{
									OFFSET -8.568993 -0.641953 3.120017
									CHANNELS 3 Xrotation Yrotation Zrotation
									JOINT RightHandIndex2
									{
										OFFSET -3.348518 0.000000 0.000000
										CHANNELS 3 Xrotation Yrotation Zrotation
										JOINT RightHandIndex3
										{
											OFFSET -3.314552 0.000000 0.000000
											CHANNELS 3 Xrotation Yrotation Zrotation
											End Site
											{
												OFFSET 1.032898 3.075478 0.678804
											}
										}
									}
								}
								JOINT RightHandMiddle1
								{
									OFFSET -8.124588 0.000000 0.000000
									CHANNELS 3 Xrotation Yrotation Zrotation
									JOINT RightHandMiddle2
									{
										OFFSET -4.166275 0.000000 0.000000
										CHANNELS 3 Xrotation Yrotation Zrotation
										JOINT RightHandMiddle3
										{
											OFFSET -3.018097 0.000000 0.000000
											CHANNELS 3 Xrotation Yrotation Zrotation
											End Site
											{
												OFFSET 1.032700 2.767937 0.617197
											}
										}
									}
								}
								JOINT RightHandRing1
								{
									OFFSET -8.571747 -0.031349 -2.884061
									CHANNELS 3 Xrotation Yrotation Zrotation
									JOINT RightHandRing2
									{
										OFFSET -3.671204 0.000000 0.000000
										CHANNELS 3 Xrotation Yrotation Zrotation
										JOINT RightHandRing3
										{
											OFFSET -2.728874 0.000000 0.000000
											CHANNELS 3 Xrotation Yrotation Zrotation
											End Site
											{
												OFFSET 0.815804 2.539261 0.577413
											}
										}
									}
								}
								JOINT RightHandPinky1
								{
									OFFSET -7.854561 -0.675247 -5.212970
									CHANNELS 3 Xrotation Yrotation Zrotation
									JOINT RightHandPinky2
									{
										OFFSET -3.068550 0.000000 0.000000
										CHANNELS 3 Xrotation Yrotation Zrotation
										JOINT RightHandPinky3
										{
											OFFSET -2.395981 0.000000 0.000000
											CHANNELS 3 Xrotation Yrotation Zrotation
											End Site
											{
												OFFSET 0.524605 2.267952 0.567413
											}
										}
									}
								}
							}
							JOINT RightSleeve
							{
								OFFSET -19.684753 -0.200165 0.476065
								CHANNELS 3 Xrotation Yrotation Zrotation
								End Site
								{
									OFFSET 0.031342 25.731255 -0.002917
								}
							}
						}
					}
				}
				JOINT Hood
				{
					OFFSET 0.369700 14.447800 -5.317800
					CHANNELS 3 Xrotation Yrotation Zrotation
					JOINT Hood1
					{
						OFFSET 0.001700 -5.553802 -5.895100
						CHANNELS 3 Xrotation Yrotation Zrotation
						JOINT Hood2
						{
							OFFSET -0.000200 -8.380501 0.763600
							CHANNELS 3 Xrotation Yrotation Zrotation
							End Site
							{
								OFFSET 0.000000 8.415215 0.000000
							}
						}
					}
				}
				JOINT Left_Breast
				{
					OFFSET 5.682500 3.120102 3.188800
					CHANNELS 3 Xrotation Yrotation Zrotation
					End Site
					{
						OFFSET 0.000000 10.528564 0.000000
					}
				}
				JOINT Right_Breast
				{
					OFFSET -4.947600 3.120102 3.185900
					CHANNELS 3 Xrotation Yrotation Zrotation
					End Site
					{
						OFFSET 0.000000 10.528564 0.000000
					}
				}
				JOINT Whistle
				{
					OFFSET 0.368200 11.471298 0.095400
					CHANNELS 3 Xrotation Yrotation Zrotation
					JOINT Whistle1
					{
						OFFSET -0.002000 -6.349899 7.479800
						CHANNELS 3 Xrotation Yrotation Zrotation
						JOINT Whistle2
						{
							OFFSET -0.001300 -8.217598 4.717600
							CHANNELS 3 Xrotation Yrotation Zrotation
							End Site
							{
								OFFSET 0.000000 9.475479 0.000000
							}
						}
					}
				}
			}
		}
		JOINT Belly
		{
			OFFSET 0.212400 1.593002 3.163700
			CHANNELS 3 Xrotation Yrotation Zrotation
			End Site
			{
				OFFSET 0.000000 7.496635 0.000000
			}
		}
	}
	JOINT FitGrandmaFacialAnim_Joint
	{
		OFFSET 1.150000 -86.211197 -1.220100
		CHANNELS 3 Xrotation Yrotation Zrotation
		End Site
		{
			OFFSET 0.000000 31.666618 0.000000
		}
	}
}
MOTION
Frames: 4
Frame Time: 0.016667
0.010630 78.552650 -6.651832 4.973516 -63.950931 6.661200 0.000000 -0.000001 0.000000 -43.339528 13.095047 33.473961 63.985035 4.508254 2.097419 -5.581000 4.330267 -15.065756 0.000000 -0.000000 0.000001 -0.000001 -0.000000 -0.000001 -0.000002 -0.000000 0.000000 -31.669036 -19.764056 -31.862754 45.446545 7.309440 -0.448967 -19.580872 0.690773 14.816859 -0.000000 -0.000000 -0.000000 -0.000001 0.000000 0.000002 -0.000000 -0.000000 0.000002 6.021418 -0.266782 -10.381232 2.022905 1.037169 -3.225559 1.954054 1.061967 -3.259243 -0.427863 1.561221 3.150431 -6.501607 52.691146 -2.930373 0.000001 -0.000000 0.000000 0.000001 -0.000000 0.000000 0.000001 -0.000000 0.000000 0.000001 -0.000000 0.000000 0.000001 -0.000000 0.000000 0.000001 -0.000000 0.000000 0.000001 -0.000000 0.000000 0.000001 -0.000000 0.000000 0.000001 -0.000000 0.000000 0.000001 -0.000000 0.000000 0.000001 -0.000000 0.000000 0.000001 -0.000000 0.000000 0.000001 -0.000000 0.000000 0.000001 -0.000000 0.000000 0.000001 -0.000000 0.000000 0.000001 -0.000000 0.000000 0.000001 -0.000000 0.000000 0.000001 -0.000000 0.000000 0.000001 -0.000000 0.000000 8.323262 13.077835 -7.024606 9.541096 6.100883 -50.685621 -17.718195 -52.472597 -11.271243 -68.344341 2.082878 12.151116 40.109880 -15.297242 -0.360568 5.639843 28.097959 11.338789 -0.000001 -0.000000 -0.000003 6.882198 2.840043 -61.140513 8.247952 7.640040 -89.897837 -0.000000 0.000004 0.000005 -2.345573 4.688880 -62.655327 8.754110 9.897134 -87.051307 -0.000001 0.000000 -0.000003 -9.042519 10.045753 -60.766246 8.524071 9.508877 -66.892967 -0.000001 -0.000000 -0.000004 -17.946983 14.755025 -51.485887 8.868404 8.667022 -84.812016 -0.000005 0.000000 -0.000001 0.000001 -0.000000 -0.000003 -1.250377 0.958173 0.166083 14.011433 15.962883 54.635909 -3.654938 37.198727 3.123700 -40.713873 8.548922 -33.022257 -1.061796 -5.152535 8.081554 1.452022 -24.614555 -6.362835 0.000000 -0.000000 0.000001 0.188938 0.143007 1.399189 -0.095006 -0.785880 10.671240 -0.000002 0.000002 -0.000000 0.348242 -5.918439 2.583759 1.609634 -4.842103 28.629281 -0.000002 0.000002 0.000001 0.965497 -11.985693 1.668193 1.794834 -3.771882 26.865475 -0.000001 -0.000003 -0.000003 2.078719 -19.147962 10.710188 3.052577 -1.679796 16.780180 -0.000004 -0.000004 0.000004 0.000002 -0.000000 -0.000002 0.000001 0.000002 -0.000001 0.000001 0.000002 -0.000001 0.000001 0.000002 -0.000001 0.000001 0.000002 -0.000001 0.000001 0.000002 -0.000001 0.000001 0.000002 -0.000000 -0.000000 0.000000 -0.000000 -0.000000 0.000000 -0.000000 0.000001 0.000001 0.000000 0.000000 -0.000001 0.000000 
-0.130694 78.123489 -6.393704 4.590567 -66.150075 6.286265 0.000000 0.000000 0.000000 -40.863806 11.083755 32.653164 61.760360 2.614575 1.951406 -9.555459 3.575729 -15.115740 0.000000 -0.000001 0.000000 -0.000000 0.000002 -0.000001 0.000001 0.000003 0.000004 -31.906361 -17.808678 -31.284981 46.845341 7.700757 -0.660556 -20.060896 0.774017 14.925439 -0.000000 -0.000000 0.000000 -0.000003 -0.000000 -0.000001 -0.000005 0.000000 0.000000 6.570436 0.174570 -10.492696 2.213360 1.252818 -3.503125 2.134169 1.287661 -3.544562 -0.726362 1.472298 3.093043 -7.529530 54.155870 -2.182896 0.000001 0.000000 0.000000 0.000001 0.000000 0.000000 0.000001 0.000000 0.000000 0.000001 0.000000 0.000000 0.000001 0.000000 0.000000 0.000001 0.000000 0.000000 0.000001 0.000000 0.000000 0.000001 0.000000 0.000000 0.000001 0.000000 0.000000 0.000001 0.000000 0.000000 0.000001 0.000000 0.000000 0.000001 0.000000 0.000000 0.000001 0.000000 0.000000 0.000001 0.000000 0.000000 0.000001 0.000000 0.000000 0.000001 0.000000 0.000000 0.000001 0.000000 0.000000 0.000001 0.000000 0.000000 0.000001 0.000000 0.000000 7.748751 12.716426 -7.899216 3.768024 9.179802 -48.813835 -14.713874 -50.244514 -8.593151 -62.145275 -0.745676 11.047878 40.109900 -15.297240 -0.360527 5.639854 28.097926 11.338782 -0.000001 0.000001 0.000002 6.882179 2.840028 -61.140479 8.247958 7.640074 -89.897816 -0.000001 0.000001 -0.000003 -2.345588 4.688866 -62.655251 8.754096 9.897151 -87.051246 -0.000001 0.000001 -0.000001 -9.042496 10.045734 -60.766246 8.524056 9.508860 -66.892974 0.000004 0.000001 -0.000003 -17.946985 14.754998 -51.485908 8.868406 8.667024 -84.811975 0.000000 -0.000001 -0.000003 -0.000002 -0.000002 0.000000 -1.130650 1.067006 0.184878 14.688262 15.673585 54.960019 -0.682701 33.923439 1.183345 -47.488762 7.229263 -35.346185 -1.746949 -5.633464 9.467125 1.769584 -24.313718 -7.223186 -0.000000 -0.000001 -0.000000 0.055242 0.373328 0.873920 -0.045545 -0.390823 7.572026 -0.000001 0.000000 -0.000000 0.374754 -5.832937 1.407346 1.498661 -4.485164 26.058307 -0.000000 0.000001 0.000001 1.026383 -11.929862 2.279480 1.646402 -3.560643 25.559932 0.000002 -0.000000 -0.000001 2.327898 -19.238792 13.973338 3.124605 -1.790131 17.283080 -0.000001 -0.000001 0.000002 -0.000003 -0.000001 0.000001 0.000000 -0.000001 -0.000001 0.000000 -0.000001 -0.000001 0.000000 -0.000001 -0.000001 0.000000 -0.000001 -0.000001 0.000000 -0.000001 -0.000001 0.000000 -0.000001 -0.000000 -0.000001 -0.000001 0.000001 -0.000001 -0.000001 0.000001 -0.000000 0.000002 -0.000001 0.000000 0.000000 0.000000 
-0.240693 77.712296 -6.008397 4.499634 -67.996063 6.243912 0.000000 0.000003 0.000000 -39.157133 10.366039 32.378361 59.196170 1.288359 1.840040 -12.580781 1.544006 -14.179769 0.000000 -0.000003 0.000001 0.000000 -0.000000 0.000000 -0.000002 0.000002 0.000004 -32.124265 -15.859518 -30.840954 47.977257 7.877253 -0.889631 -20.422744 0.725711 15.298357 -0.000000 -0.000000 0.000000 0.000001 -0.000000 0.000001 0.000001 0.000000 -0.000000 7.429451 0.353194 -10.376434 2.596586 1.518467 -3.801018 2.492145 1.563044 -3.857252 -0.932587 1.253276 2.928706 -9.210490 55.518120 -1.362791 -0.000000 -0.000001 0.000000 -0.000000 -0.000001 0.000000 -0.000000 -0.000001 0.000000 -0.000000 -0.000001 0.000000 -0.000000 -0.000001 0.000000 -0.000000 -0.000001 0.000000 -0.000000 -0.000001 0.000000 -0.000000 -0.000001 0.000000 -0.000000 -0.000001 0.000000 -0.000000 -0.000001 0.000000 -0.000000 -0.000001 0.000000 -0.000000 -0.000001 0.000000 -0.000000 -0.000001 0.000000 -0.000000 -0.000001 0.000000 -0.000000 -0.000001 0.000000 -0.000000 -0.000001 0.000000 -0.000000 -0.000001 0.000000 -0.000000 -0.000001 0.000000 -0.000000 -0.000001 0.000000 7.224910 11.907275 -8.568575 -2.264322 11.705506 -47.207559 -12.391273 -47.836340 -6.593950 -56.577196 -1.496972 9.008514 40.109924 -15.297226 -0.360510 5.639818 28.097925 11.338806 0.000001 0.000004 0.000002 6.882215 2.840021 -61.140486 8.247939 7.640037 -89.897864 0.000003 0.000004 -0.000004 -2.345561 4.688837 -62.655272 8.754077 9.897161 -87.051266 -0.000001 0.000002 -0.000001 -9.042528 10.045745 -60.766260 8.524106 9.508872 -66.892994 0.000003 0.000001 -0.000001 -17.946985 14.755013 -51.485911 8.868400 8.667026 -84.811975 -0.000001 -0.000000 0.000002 0.000001 0.000000 -0.000003 -1.065458 1.265471 0.198262 14.656630 14.472739 55.166000 -4.528754 30.845933 3.374023 -47.603973 6.503100 -36.543325 -2.346136 -6.100525 10.731423 2.076090 -24.043425 -8.030818 -0.000001 0.000002 0.000000 -0.054793 0.532080 0.738697 0.019785 -0.087318 5.078602 -0.000002 0.000001 0.000003 0.381860 -5.810070 1.088495 1.432683 -4.204257 24.052151 0.000000 0.000000 0.000004 1.176586 -11.785440 3.841128 1.607161 -3.502585 25.206245 0.000001 -0.000001 0.000001 2.615598 -19.318237 17.991225 3.315364 -2.067398 18.569823 -0.000003 -0.000001 0.000001 0.000000 -0.000001 -0.000003 0.000001 -0.000000 -0.000001 0.000001 -0.000000 -0.000001 0.000001 -0.000000 -0.000001 0.000001 -0.000000 -0.000001 0.000001 -0.000000 -0.000001 0.000001 -0.000000 -0.000000 -0.000000 0.000001 -0.000001 -0.000000 0.000001 -0.000001 0.000000 -0.000001 -0.000000 0.000000 0.000003 0.000000 
-0.271098 77.300323 -5.495049 4.584869 -69.048069 6.347764 -0.000000 0.000001 0.000000 -38.110130 10.008921 32.081706 56.831149 -1.880508 1.574509 -15.786249 -0.000826 -12.568808 0.000000 0.000001 -0.000001 -0.000003 0.000000 -0.000000 -0.000002 0.000001 0.000000 -32.183472 -14.154664 -30.585580 48.880741 7.698407 -1.146006 -20.757517 0.431745 16.018940 -0.000000 -0.000000 -0.000000 -0.000001 -0.000000 -0.000000 -0.000001 0.000001 -0.000000 8.346151 -0.007597 -10.164582 3.018320 1.678070 -4.067148 2.881016 1.725165 -4.151147 -0.981795 1.071881 2.832520 -11.175559 56.782317 -0.649288 0.000001 0.000000 -0.000000 0.000001 0.000000 -0.000000 0.000001 0.000000 -0.000000 0.000001 0.000000 -0.000000 0.000001 0.000000 -0.000000 0.000001 0.000000 -0.000000 0.000001 0.000000 -0.000000 0.000001 0.000000 -0.000000 0.000001 0.000000 -0.000000 0.000001 0.000000 -0.000000 0.000001 0.000000 -0.000000 0.000001 0.000000 -0.000000 0.000001 0.000000 -0.000000 0.000001 0.000000 -0.000000 0.000001 0.000000 -0.000000 0.000001 0.000000 -0.000000 0.000001 0.000000 -0.000000 0.000001 0.000000 -0.000000 0.000001 0.000000 -0.000000 6.677906 10.753161 -8.549240 -8.021123 14.587828 -46.182710 -13.712519 -45.464628 -7.520434 -48.869942 -1.339806 7.345900 40.109917 -15.297260 -0.360546 5.639826 28.097959 11.338829 0.000001 -0.000002 -0.000001 6.882192 2.839997 -61.140513 8.247963 7.640089 -89.897843 0.000001 0.000000 0.000001 -2.345549 4.688815 -62.655265 8.754079 9.897132 -87.051314 -0.000003 -0.000000 -0.000003 -9.042513 10.045710 -60.766219 8.524096 9.508882 -66.892967 -0.000001 0.000000 -0.000001 -17.946993 14.755002 -51.485867 8.868429 8.667050 -84.811955 -0.000001 -0.000002 -0.000001 0.000002 0.000002 -0.000002 -0.941218 1.430420 0.218051 14.222963 13.758810 55.030110 -5.122353 28.405608 3.551381 -49.977785 5.601589 -36.818247 -2.731575 -6.426724 11.574433 2.364091 -23.806187 -8.771049 -0.000000 0.000001 0.000001 -0.124218 0.615511 0.793043 0.070677 0.090719 3.555015 -0.000001 0.000003 -0.000002 0.372797 -5.839098 1.492318 1.402489 -4.036282 22.855994 -0.000001 0.000002 -0.000001 1.383433 -11.568629 6.136987 1.656978 -3.576017 25.654150 -0.000000 -0.000003 0.000002 2.906252 -19.368586 22.456801 3.612577 -2.462282 20.466628 -0.000001 0.000000 -0.000001 -0.000001 -0.000001 -0.000001 0.000001 0.000001 0.000000 0.000001 0.000001 0.000000 0.000001 0.000001 0.000000 0.000001 0.000001 0.000000 0.000001 0.000001 0.000000 0.000001 0.000001 0.000001 0.000000 -0.000003 0.000003 0.000000 -0.000003 0.000003 -0.000000 0.000000 0.000001 -0.000000 0.000001 0.000000 
